<?xml version="1.0" encoding="UTF-8"?><svg id="Layer_1" xmlns="http://www.w3.org/2000/svg" viewBox="0 0 1251.87 256.76"><defs><style>.cls-1{fill:none;stroke:#231f20;stroke-miterlimit:10;stroke-width:5px;}</style></defs><polygon class="cls-1" points="1131.57 50.11 1249.37 50.11 1249.37 247.68 1131.57 50.11"/><polygon class="cls-1" points="120.3 247.68 2.5 247.68 2.5 50.11 120.3 247.68"/><g><path d="M113.45,55.08c.14-.57,.65-1.15,1.51-1.73,.86-.57,1.84-1.11,2.92-1.62,1.08-.5,2.19-.9,3.35-1.19,1.15-.29,2.16-.43,3.02-.43,1.58,0,3.6,.43,6.05,1.3,2.45,.86,3.81,1.94,4.1,3.24l36.5,102.82c.29,.29,1.08,.65,2.38,1.08,1.3,.43,2.3,.65,3.02,.65,.86,0,1.84-.18,2.92-.54,1.08-.36,1.76-.9,2.05-1.62V50.33h5.83v110.81c-.15,.72-.69,1.37-1.62,1.94-.94,.58-1.98,1.08-3.13,1.51-1.15,.43-2.38,.76-3.67,.97s-2.38,.32-3.24,.32c-1.59,0-3.46-.47-5.62-1.4-2.16-.93-3.39-1.98-3.67-3.13l-36.5-102.6c-.29-.43-1.12-.94-2.48-1.51-1.37-.57-2.41-.86-3.13-.86-.86,0-1.8,.29-2.81,.86-1.01,.58-1.66,1.23-1.94,1.94v106.7h-5.83V55.08Z"/><path d="M229.01,105.41h61.34v5.4h-61.34v24.62c0,2.88,.43,5.76,1.3,8.64,.86,2.88,2.23,5.51,4.1,7.88,1.87,2.38,4.21,4.32,7.02,5.83,2.81,1.51,6.08,2.27,9.83,2.27h39.1v5.83h-41.26c-4.18,0-7.85-.79-11.02-2.38-3.17-1.58-5.87-3.67-8.1-6.26-2.23-2.59-3.92-5.51-5.08-8.75-1.15-3.24-1.73-6.51-1.73-9.83v-61.13c0-3.17,.57-6.41,1.73-9.72,1.15-3.31,2.84-6.26,5.08-8.86,2.23-2.59,4.93-4.71,8.1-6.37,3.17-1.65,6.84-2.48,11.02-2.48h41.26v5.83h-39.1c-3.75,0-7.02,.76-9.83,2.27-2.81,1.51-5.15,3.46-7.02,5.83-1.87,2.38-3.24,5.04-4.1,7.99-.86,2.95-1.3,5.87-1.3,8.75v24.62Z"/><path d="M353.64,108l-31.54-57.89h5.83l28.73,52.7,28.94-52.7h5.83l-31.97,57.89,31.97,57.89h-5.83l-28.94-52.49-27.86,52.49h-5.83l30.67-57.89Z"/><path d="M445.66,165.89c-8.07,0-13.82-2.16-17.28-6.48-3.46-4.32-5.18-9.72-5.18-16.2V50.11h5.83v89.86c0,3.75,.25,6.88,.76,9.4,.5,2.52,1.47,4.57,2.92,6.16,1.44,1.59,3.38,2.74,5.83,3.46,2.45,.72,5.54,1.08,9.29,1.08h20.95c3.74,0,6.84-.36,9.29-1.08,2.45-.72,4.35-1.87,5.72-3.46,1.37-1.58,2.3-3.63,2.81-6.16,.5-2.52,.76-5.65,.76-9.4V50.11h5.83v93.1c0,6.48-1.69,11.88-5.08,16.2-3.39,4.32-9.11,6.48-17.17,6.48h-25.27Z"/><path d="M559.71,50.11h36.94v5.83h-36.94c-6.91,0-12.71,2.09-17.39,6.26-4.68,4.18-7.02,10.37-7.02,18.58,0,4.32,.9,7.92,2.7,10.8,1.8,2.88,4.14,5.29,7.02,7.24,2.88,1.94,6.23,3.49,10.04,4.64,3.81,1.15,7.67,2.16,11.56,3.02,3.02,.72,6.26,1.66,9.72,2.81,3.46,1.15,6.7,2.81,9.72,4.97,3.02,2.16,5.54,4.93,7.56,8.32,2.02,3.38,3.02,7.67,3.02,12.85,0,4.46-.76,8.57-2.27,12.31-1.51,3.75-3.64,6.95-6.37,9.61-2.74,2.67-6.01,4.75-9.83,6.26-3.82,1.51-7.96,2.27-12.42,2.27h-36.5v-5.83h36.07c3.31,0,6.48-.5,9.5-1.51,3.02-1.01,5.72-2.55,8.1-4.64,2.38-2.09,4.25-4.64,5.62-7.67,1.37-3.02,2.05-6.62,2.05-10.8,0-4.61-1.15-8.39-3.46-11.34-2.31-2.95-5.08-5.33-8.32-7.13-3.24-1.8-6.73-3.17-10.48-4.1-3.75-.93-6.99-1.69-9.72-2.27-3.02-.57-6.26-1.62-9.72-3.13-3.46-1.51-6.62-3.49-9.5-5.94-2.88-2.45-5.29-5.4-7.24-8.86-1.94-3.46-2.92-7.42-2.92-11.88,0-9.07,2.81-16.45,8.42-22.14,5.62-5.69,12.96-8.53,22.03-8.53Z"/><path d="M802.7,55.94h-38.66c-3.75,0-7.02,.76-9.83,2.27-2.81,1.51-5.15,3.46-7.02,5.83-1.87,2.38-3.24,5.04-4.1,7.99-.86,2.95-1.3,5.87-1.3,8.75v54.65c0,2.88,.43,5.76,1.3,8.64,.86,2.88,2.23,5.51,4.1,7.88,1.87,2.38,4.21,4.32,7.02,5.83,2.81,1.51,6.08,2.27,9.83,2.27h38.66v5.83h-40.82c-4.18,0-7.85-.79-11.02-2.38-3.17-1.58-5.87-3.67-8.1-6.26-2.23-2.59-3.92-5.51-5.08-8.75-1.15-3.24-1.73-6.51-1.73-9.83v-61.13c0-3.17,.57-6.41,1.73-9.72,1.15-3.31,2.84-6.26,5.08-8.86,2.23-2.59,4.93-4.71,8.1-6.37,3.17-1.65,6.84-2.48,11.02-2.48h40.82v5.83Z"/><path d="M860.16,165.89c-8.07,0-13.82-2.16-17.28-6.48-3.46-4.32-5.18-9.72-5.18-16.2V73.01c0-6.62,1.73-12.1,5.18-16.42s9.29-6.48,17.5-6.48h24.84c8.21,0,14,2.16,17.39,6.48,3.38,4.32,5.08,9.79,5.08,16.42v70.2c0,6.48-1.69,11.88-5.08,16.2-3.39,4.32-9.11,6.48-17.17,6.48h-25.27Zm23.11-5.83c3.74,0,6.84-.36,9.29-1.08,2.45-.72,4.35-1.87,5.72-3.46,1.37-1.58,2.3-3.63,2.81-6.16,.5-2.52,.76-5.65,.76-9.4v-63.72c0-2.88-.29-5.54-.86-7.99-.58-2.45-1.55-4.61-2.92-6.48-1.37-1.87-3.28-3.31-5.72-4.32-2.45-1.01-5.54-1.51-9.29-1.51h-20.74c-3.75,0-6.84,.51-9.29,1.51-2.45,1.01-4.36,2.45-5.72,4.32-1.37,1.87-2.34,4.03-2.92,6.48-.58,2.45-.86,5.11-.86,7.99v63.72c0,3.75,.25,6.88,.76,9.4,.5,2.52,1.47,4.57,2.92,6.16,1.44,1.59,3.38,2.74,5.83,3.46,2.45,.72,5.54,1.08,9.29,1.08h20.95Z"/><path d="M1023.67,165.89h-7.99l-35.64-59.62h5.4c3.46,0,6.62-.65,9.5-1.94,2.88-1.3,5.4-3.06,7.56-5.29,2.16-2.23,3.81-4.89,4.97-7.99,1.15-3.09,1.73-6.44,1.73-10.04,0-8.35-2.23-14.61-6.7-18.79-4.46-4.17-10.15-6.26-17.06-6.26h-41.69v-5.83h41.69c9.07,0,16.27,2.88,21.6,8.64,5.33,5.76,7.99,13.18,7.99,22.25,0,4.32-.69,8.32-2.05,11.99-1.37,3.67-3.21,6.84-5.51,9.5-2.3,2.67-4.93,4.83-7.88,6.48-2.95,1.66-6.01,2.56-9.18,2.7l33.26,54.22Zm-79.92-87.91h5.83v87.91h-5.83V77.97Z"/><path d="M1048.94,55.94v-5.83h40.39c9.07,0,16.27,2.88,21.6,8.64,5.33,5.76,7.99,13.18,7.99,22.25s-2.67,16.38-7.99,21.92c-5.33,5.54-12.53,8.32-21.6,8.32h-34.56v54.65h-5.83v-60.48h40.39c6.91,0,12.6-1.91,17.06-5.72,4.46-3.81,6.7-10.04,6.7-18.68s-2.23-14.61-6.7-18.79c-4.47-4.17-10.15-6.26-17.06-6.26h-40.39Z"/></g></svg>