<?xml version="1.0" encoding="UTF-8"?><svg id="Layer_2" xmlns="http://www.w3.org/2000/svg" viewBox="0 0 778.92 129.49"><defs><style>.cls-1{fill:#fff;}.cls-2{fill:none;stroke:#fff;stroke-miterlimit:10;}.cls-3{isolation:isolate;}</style></defs><g id="Layer_12"><path class="cls-2" d="M75.29,127.87C50.36,85.86,25.43,43.84,.51,1.83l.45,126.04H75.29Z"/><path class="cls-2" d="M703.63,1.6c24.93,42.02,49.86,84.03,74.79,126.05l-.45-126.05h-74.34Z"/><g class="cls-3"><path class="cls-1" d="M75.5,82.86V5.1c.1-.4,.46-.81,1.06-1.21,.61-.4,1.29-.78,2.05-1.14,.76-.35,1.54-.63,2.35-.83,.81-.2,1.52-.3,2.12-.3,1.11,0,2.52,.3,4.24,.91,1.72,.61,2.68,1.36,2.88,2.27l25.62,72.16c.2,.2,.76,.46,1.67,.76,.91,.3,1.62,.46,2.12,.46,.61,0,1.29-.13,2.05-.38,.76-.25,1.24-.63,1.44-1.14V1.76h4.09V79.53c-.1,.51-.48,.96-1.14,1.36-.66,.41-1.39,.76-2.2,1.06-.81,.3-1.67,.53-2.58,.68s-1.67,.23-2.27,.23c-1.11,0-2.43-.33-3.94-.99-1.52-.66-2.38-1.39-2.58-2.2L86.87,7.68c-.2-.3-.78-.66-1.74-1.06-.96-.4-1.69-.61-2.2-.61-.61,0-1.27,.2-1.97,.61-.71,.41-1.16,.86-1.36,1.36V82.86h-4.09Z"/><path class="cls-1" d="M193.14,40.42v3.79h-43.05v17.28c0,2.02,.3,4.04,.91,6.06,.61,2.02,1.57,3.87,2.88,5.53,1.31,1.67,2.96,3.03,4.93,4.09s4.27,1.59,6.9,1.59h27.44v4.09h-28.95c-2.93,0-5.51-.55-7.73-1.67-2.22-1.11-4.12-2.58-5.68-4.4-1.57-1.82-2.75-3.87-3.56-6.14-.81-2.27-1.21-4.57-1.21-6.9V20.86c0-2.22,.4-4.5,1.21-6.82,.81-2.32,1.99-4.4,3.56-6.21,1.57-1.82,3.46-3.31,5.68-4.47,2.22-1.16,4.8-1.74,7.73-1.74h28.95V5.7h-27.44c-2.63,0-4.93,.53-6.9,1.59-1.97,1.06-3.61,2.42-4.93,4.09-1.31,1.67-2.27,3.54-2.88,5.61-.61,2.07-.91,4.12-.91,6.14v17.28h43.05Z"/><path class="cls-1" d="M209.51,82.86l21.53-40.63L208.9,1.61h4.09l20.16,36.99L253.47,1.61h4.09l-22.44,40.63,22.44,40.63h-4.09l-20.31-36.84-19.56,36.84h-4.09Z"/><path class="cls-1" d="M276.97,78.32c-2.43-3.03-3.64-6.82-3.64-11.37V1.61h4.09v63.06c0,2.63,.18,4.83,.53,6.59,.35,1.77,1.04,3.21,2.05,4.32,1.01,1.11,2.37,1.92,4.09,2.43,1.72,.51,3.89,.76,6.52,.76h14.7c2.63,0,4.8-.25,6.52-.76,1.72-.5,3.06-1.31,4.02-2.43,.96-1.11,1.62-2.55,1.97-4.32,.35-1.77,.53-3.96,.53-6.59V1.61h4.09V66.95c0,4.55-1.19,8.34-3.56,11.37-2.38,3.03-6.39,4.55-12.05,4.55h-17.74c-5.66,0-9.7-1.52-12.13-4.55Z"/><path class="cls-1" d="M388.54,1.61V5.7h-25.92c-4.85,0-8.92,1.47-12.2,4.4-3.29,2.93-4.93,7.28-4.93,13.04,0,3.03,.63,5.56,1.9,7.58,1.26,2.02,2.9,3.71,4.93,5.08,2.02,1.36,4.37,2.45,7.05,3.26,2.68,.81,5.38,1.52,8.11,2.12,2.12,.51,4.4,1.16,6.82,1.97,2.43,.81,4.7,1.97,6.82,3.49,2.12,1.52,3.89,3.46,5.31,5.84,1.41,2.38,2.12,5.38,2.12,9.02,0,3.13-.53,6.01-1.59,8.64-1.06,2.63-2.55,4.88-4.47,6.75-1.92,1.87-4.22,3.34-6.9,4.4-2.68,1.06-5.59,1.59-8.72,1.59h-25.62v-4.09h25.32c2.32,0,4.55-.35,6.67-1.06,2.12-.71,4.02-1.79,5.68-3.26,1.67-1.46,2.98-3.26,3.94-5.38,.96-2.12,1.44-4.65,1.44-7.58,0-3.23-.81-5.89-2.43-7.96-1.62-2.07-3.56-3.74-5.84-5-2.27-1.26-4.73-2.22-7.35-2.88-2.63-.66-4.9-1.19-6.82-1.59-2.12-.4-4.4-1.14-6.82-2.2-2.43-1.06-4.65-2.45-6.67-4.17-2.02-1.72-3.71-3.79-5.08-6.21-1.36-2.43-2.05-5.2-2.05-8.34,0-6.37,1.97-11.54,5.91-15.54,3.94-3.99,9.1-5.99,15.46-5.99h25.92Z"/></g><g class="cls-3"><path class="cls-1" d="M474.04,5.7c-2.63,0-4.93,.53-6.9,1.59-1.97,1.06-3.61,2.42-4.93,4.09-1.31,1.67-2.27,3.54-2.88,5.61-.61,2.07-.91,4.12-.91,6.14V61.49c0,2.02,.3,4.04,.91,6.06,.61,2.02,1.57,3.87,2.88,5.53,1.31,1.67,2.96,3.03,4.93,4.09s4.27,1.59,6.9,1.59h27.13v4.09h-28.65c-2.93,0-5.51-.55-7.73-1.67-2.22-1.11-4.12-2.58-5.68-4.4-1.57-1.82-2.75-3.87-3.56-6.14-.81-2.27-1.21-4.57-1.21-6.9V20.86c0-2.22,.4-4.5,1.21-6.82,.81-2.32,1.99-4.4,3.56-6.21,1.57-1.82,3.46-3.31,5.68-4.47,2.22-1.16,4.8-1.74,7.73-1.74h28.65V5.7h-27.13Z"/></g><g class="cls-3"><path class="cls-1" d="M522.85,78.32c-2.43-3.03-3.64-6.82-3.64-11.37V17.68c0-4.65,1.21-8.49,3.64-11.52,2.43-3.03,6.52-4.55,12.28-4.55h17.43c5.76,0,9.83,1.52,12.2,4.55,2.37,3.03,3.56,6.87,3.56,11.52v49.27c0,4.55-1.19,8.34-3.56,11.37-2.38,3.03-6.39,4.55-12.05,4.55h-17.74c-5.66,0-9.7-1.52-12.13-4.55Zm34.87-.3c1.72-.5,3.06-1.31,4.02-2.43,.96-1.11,1.62-2.55,1.97-4.32,.35-1.77,.53-3.96,.53-6.59V19.95c0-2.02-.2-3.89-.61-5.61-.41-1.72-1.09-3.23-2.05-4.55-.96-1.31-2.3-2.32-4.02-3.03-1.72-.71-3.89-1.06-6.52-1.06h-14.55c-2.63,0-4.8,.36-6.52,1.06-1.72,.71-3.06,1.72-4.02,3.03-.96,1.31-1.64,2.83-2.05,4.55-.4,1.72-.61,3.59-.61,5.61v44.72c0,2.63,.17,4.83,.53,6.59,.35,1.77,1.04,3.21,2.05,4.32,1.01,1.11,2.37,1.92,4.09,2.43,1.72,.51,3.89,.76,6.52,.76h14.71c2.63,0,4.8-.25,6.52-.76Z"/><path class="cls-1" d="M637.61,82.86l-25.01-41.84h3.79c2.43,0,4.65-.46,6.67-1.36,2.02-.91,3.79-2.15,5.31-3.71,1.52-1.57,2.68-3.43,3.49-5.61,.81-2.17,1.21-4.52,1.21-7.05,0-5.86-1.57-10.26-4.7-13.19-3.13-2.93-7.12-4.4-11.98-4.4h-29.26V1.61h29.26c6.37,0,11.42,2.02,15.16,6.06,3.74,4.04,5.61,9.25,5.61,15.61,0,3.03-.48,5.84-1.44,8.41-.96,2.58-2.25,4.8-3.87,6.67-1.62,1.87-3.46,3.39-5.53,4.55-2.07,1.16-4.22,1.8-6.44,1.9l23.34,38.05h-5.61Zm-46.39-61.7v61.7h-4.09V21.17h4.09Z"/><path class="cls-1" d="M654.43,1.61h28.35c6.37,0,11.42,2.02,15.16,6.06,3.74,4.04,5.61,9.25,5.61,15.61s-1.87,11.5-5.61,15.39c-3.74,3.89-8.79,5.84-15.16,5.84h-24.25v38.35h-4.09V40.42h28.35c4.85,0,8.84-1.34,11.98-4.02,3.13-2.68,4.7-7.05,4.7-13.11s-1.57-10.26-4.7-13.19c-3.13-2.93-7.12-4.4-11.98-4.4h-28.35V1.61Z"/></g></g></svg>